<mxfile host="app.diagrams.net" modified="2024-04-20T14:33:29.586Z" agent="Mozilla/5.0 (Windows NT 10.0; Win64; x64) AppleWebKit/537.36 (KHTML, like Gecko) Chrome/123.0.0.0 Safari/537.36" version="24.2.5" etag="pow4OFTAFYJop9P3gv6I" type="device">
  <diagram id="-vKaQO1VEzuR-oeYbxUk" name="Page-1">
    <mxGraphModel dx="1434" dy="700" grid="1" gridSize="10" guides="1" tooltips="1" connect="1" arrows="1" fold="1" page="1" pageScale="1" pageWidth="850" pageHeight="1100" math="0" shadow="0">
      <root>
        <mxCell id="0" />
        <mxCell id="1" parent="0" />
        <mxCell id="ENmyvnz1ZdXFTaUTgGwa-9" value="«Service»&lt;br&gt;&lt;b&gt;MongoDB&lt;/b&gt;" style="html=1;dropTarget=0;whiteSpace=wrap;" vertex="1" parent="1">
          <mxGeometry x="190" y="310" width="180" height="90" as="geometry" />
        </mxCell>
        <mxCell id="ENmyvnz1ZdXFTaUTgGwa-10" value="" style="shape=module;jettyWidth=8;jettyHeight=4;" vertex="1" parent="ENmyvnz1ZdXFTaUTgGwa-9">
          <mxGeometry x="1" width="20" height="20" relative="1" as="geometry">
            <mxPoint x="-27" y="7" as="offset" />
          </mxGeometry>
        </mxCell>
        <mxCell id="ENmyvnz1ZdXFTaUTgGwa-11" value="«Service»&lt;br&gt;&lt;b&gt;Kafka&lt;/b&gt;" style="html=1;dropTarget=0;whiteSpace=wrap;" vertex="1" parent="1">
          <mxGeometry x="590" y="310" width="180" height="90" as="geometry" />
        </mxCell>
        <mxCell id="ENmyvnz1ZdXFTaUTgGwa-12" value="" style="shape=module;jettyWidth=8;jettyHeight=4;" vertex="1" parent="ENmyvnz1ZdXFTaUTgGwa-11">
          <mxGeometry x="1" width="20" height="20" relative="1" as="geometry">
            <mxPoint x="-27" y="7" as="offset" />
          </mxGeometry>
        </mxCell>
        <mxCell id="ENmyvnz1ZdXFTaUTgGwa-13" value="«Service»&lt;br&gt;&lt;b&gt;Pinot&lt;/b&gt;" style="html=1;dropTarget=0;whiteSpace=wrap;" vertex="1" parent="1">
          <mxGeometry x="960" y="310" width="180" height="90" as="geometry" />
        </mxCell>
        <mxCell id="ENmyvnz1ZdXFTaUTgGwa-14" value="" style="shape=module;jettyWidth=8;jettyHeight=4;" vertex="1" parent="ENmyvnz1ZdXFTaUTgGwa-13">
          <mxGeometry x="1" width="20" height="20" relative="1" as="geometry">
            <mxPoint x="-27" y="7" as="offset" />
          </mxGeometry>
        </mxCell>
        <mxCell id="ENmyvnz1ZdXFTaUTgGwa-15" value="&lt;b&gt;TrackBZ API&lt;/b&gt;" style="html=1;dropTarget=0;whiteSpace=wrap;" vertex="1" parent="1">
          <mxGeometry x="590" y="110" width="180" height="90" as="geometry" />
        </mxCell>
        <mxCell id="ENmyvnz1ZdXFTaUTgGwa-16" value="" style="shape=module;jettyWidth=8;jettyHeight=4;" vertex="1" parent="ENmyvnz1ZdXFTaUTgGwa-15">
          <mxGeometry x="1" width="20" height="20" relative="1" as="geometry">
            <mxPoint x="-27" y="7" as="offset" />
          </mxGeometry>
        </mxCell>
        <mxCell id="ENmyvnz1ZdXFTaUTgGwa-17" value="Use" style="endArrow=open;endSize=12;dashed=1;html=1;rounded=0;exitX=0.5;exitY=1;exitDx=0;exitDy=0;entryX=0.456;entryY=0.017;entryDx=0;entryDy=0;entryPerimeter=0;" edge="1" parent="1" source="ENmyvnz1ZdXFTaUTgGwa-15" target="ENmyvnz1ZdXFTaUTgGwa-9">
          <mxGeometry width="160" relative="1" as="geometry">
            <mxPoint x="340" y="360" as="sourcePoint" />
            <mxPoint x="500" y="360" as="targetPoint" />
          </mxGeometry>
        </mxCell>
        <mxCell id="ENmyvnz1ZdXFTaUTgGwa-18" value="Use" style="endArrow=open;endSize=12;dashed=1;html=1;rounded=0;exitX=0.5;exitY=1;exitDx=0;exitDy=0;entryX=0.561;entryY=-0.061;entryDx=0;entryDy=0;entryPerimeter=0;" edge="1" parent="1" source="ENmyvnz1ZdXFTaUTgGwa-15" target="ENmyvnz1ZdXFTaUTgGwa-13">
          <mxGeometry width="160" relative="1" as="geometry">
            <mxPoint x="690" y="210" as="sourcePoint" />
            <mxPoint x="282" y="322" as="targetPoint" />
          </mxGeometry>
        </mxCell>
        <mxCell id="ENmyvnz1ZdXFTaUTgGwa-25" style="edgeStyle=orthogonalEdgeStyle;rounded=0;orthogonalLoop=1;jettySize=auto;html=1;" edge="1" parent="1" source="ENmyvnz1ZdXFTaUTgGwa-24" target="ENmyvnz1ZdXFTaUTgGwa-9">
          <mxGeometry relative="1" as="geometry" />
        </mxCell>
        <mxCell id="ENmyvnz1ZdXFTaUTgGwa-24" value="" style="shape=providedRequiredInterface;html=1;verticalLabelPosition=bottom;sketch=0;" vertex="1" parent="1">
          <mxGeometry x="480" y="345" width="20" height="20" as="geometry" />
        </mxCell>
        <mxCell id="ENmyvnz1ZdXFTaUTgGwa-26" style="edgeStyle=orthogonalEdgeStyle;rounded=0;orthogonalLoop=1;jettySize=auto;html=1;entryX=1;entryY=0.5;entryDx=0;entryDy=0;entryPerimeter=0;" edge="1" parent="1" source="ENmyvnz1ZdXFTaUTgGwa-11" target="ENmyvnz1ZdXFTaUTgGwa-24">
          <mxGeometry relative="1" as="geometry" />
        </mxCell>
        <mxCell id="ENmyvnz1ZdXFTaUTgGwa-34" style="edgeStyle=orthogonalEdgeStyle;rounded=0;orthogonalLoop=1;jettySize=auto;html=1;entryX=0;entryY=0.5;entryDx=0;entryDy=0;" edge="1" parent="1" source="ENmyvnz1ZdXFTaUTgGwa-33" target="ENmyvnz1ZdXFTaUTgGwa-13">
          <mxGeometry relative="1" as="geometry" />
        </mxCell>
        <mxCell id="ENmyvnz1ZdXFTaUTgGwa-33" value="" style="shape=providedRequiredInterface;html=1;verticalLabelPosition=bottom;sketch=0;" vertex="1" parent="1">
          <mxGeometry x="860" y="345" width="20" height="20" as="geometry" />
        </mxCell>
        <mxCell id="ENmyvnz1ZdXFTaUTgGwa-35" style="edgeStyle=orthogonalEdgeStyle;rounded=0;orthogonalLoop=1;jettySize=auto;html=1;entryX=0;entryY=0.5;entryDx=0;entryDy=0;entryPerimeter=0;" edge="1" parent="1" source="ENmyvnz1ZdXFTaUTgGwa-11" target="ENmyvnz1ZdXFTaUTgGwa-33">
          <mxGeometry relative="1" as="geometry" />
        </mxCell>
        <mxCell id="ENmyvnz1ZdXFTaUTgGwa-37" value="Use" style="endArrow=open;endSize=12;dashed=1;html=1;rounded=0;entryX=0.5;entryY=0;entryDx=0;entryDy=0;" edge="1" parent="1" source="ENmyvnz1ZdXFTaUTgGwa-15" target="ENmyvnz1ZdXFTaUTgGwa-11">
          <mxGeometry width="160" relative="1" as="geometry">
            <mxPoint x="690" y="210" as="sourcePoint" />
            <mxPoint x="1071" y="315" as="targetPoint" />
          </mxGeometry>
        </mxCell>
      </root>
    </mxGraphModel>
  </diagram>
</mxfile>
